<?xml version="1.0" encoding="UTF-8" standalone="no"?>
<!-- Created with Inkscape (http://www.inkscape.org/) -->

<svg
   width="80mm"
   height="80mm"
   viewBox="0 0 80.000001 80"
   version="1.1"
   id="svg18"
   xml:space="preserve"
   sodipodi:docname="nvmesh_logo.svg"
   xmlns:inkscape="http://www.inkscape.org/namespaces/inkscape"
   xmlns:sodipodi="http://sodipodi.sourceforge.net/DTD/sodipodi-0.dtd"
   xmlns="http://www.w3.org/2000/svg"
   xmlns:svg="http://www.w3.org/2000/svg"><sodipodi:namedview
     id="namedview20"
     pagecolor="#ffffff"
     bordercolor="#000000"
     borderopacity="0.25"
     inkscape:showpageshadow="2"
     inkscape:pageopacity="0.0"
     inkscape:pagecheckerboard="0"
     inkscape:deskcolor="#d1d1d1"
     inkscape:document-units="mm"
     showgrid="false"
     inkscape:zoom="0.72367996"
     inkscape:cx="808.36838"
     inkscape:cy="560.33056"
     inkscape:window-width="1280"
     inkscape:window-height="648"
     inkscape:window-x="0"
     inkscape:window-y="0"
     inkscape:window-maximized="1"
     inkscape:current-layer="layer1" /><defs
     id="defs15" /><g
     inkscape:label="Layer 1"
     inkscape:groupmode="layer"
     id="layer1"
     transform="translate(-51.590691,-29.479371)"><rect
       style="fill:none;fill-opacity:1;stroke:none;stroke-width:0.126945"
       id="rect315"
       width="80"
       height="80"
       x="51.590691"
       y="29.47937"
       inkscape:export-filename="../Projects/web-dev/wel97459.github.io/images/nvmesh_logo_box.svg"
       inkscape:export-xdpi="96"
       inkscape:export-ydpi="96"
       inkscape:label="rect315" /><path
       style="fill:#000000;stroke-width:0.114592"
       d="m 105.59528,105.10214 c -0.18907,-0.1199 -4.83005,-4.68176 -10.31328,-10.137792 l -9.969493,-9.920064 1.043598,0.02544 1.043597,0.02544 8.970663,8.912514 c 4.933865,4.901871 8.981105,8.898282 8.993865,8.880882 0.0129,-0.0174 -0.0455,-2.03922 -0.12944,-4.492958 l -0.15265,-4.461314 0.47207,-1.039107 c 0.59542,-1.31064 0.53292,-1.256281 1.77413,-1.542681 1.63769,-0.377895 1.65108,-0.374814 2.67146,0.618177 0.8537,0.830772 1.15309,1.016696 1.15328,0.716183 4e-5,-0.07878 0.16332,-0.4784 0.36283,-0.888067 l 0.36275,-0.744859 0.01,-2.979389 0.01,-2.979381 0.7162,-0.0342 0.71619,-0.03405 v 3.21713 3.217161 l -0.39866,0.770382 c -0.34707,0.670705 -0.40714,0.911278 -0.46418,1.859021 -0.0956,1.58896 -0.14556,1.81317 -0.44818,2.01144 -0.51675,0.33858 -1.21,-0.14185 -1.21,-0.83862 0,-0.3398 -2.19327,-2.54818 -2.52921,-2.546668 -0.90443,0.0044 -1.09408,0.110171 -1.42135,0.794898 l -0.31376,0.65646 0.20452,5.089218 c 0.22089,5.496424 0.21439,5.628144 -0.29067,5.889304 -0.42454,0.21956 -0.44834,0.21833 -0.86347,-0.0446 z m -4.07119,-21.480398 c -1.859648,-0.400645 -2.973644,-1.783987 -3.068068,-3.809833 -0.2634,-5.651479 7.421198,-6.168538 7.853748,-0.528445 l 0.064,0.834568 -2.9963,-0.03243 -2.99629,-0.03243 8e-5,0.297105 c 4.3e-4,1.728778 2.78411,2.508306 3.72431,1.042949 0.21155,-0.329702 2.11996,-0.603509 2.11996,-0.30416 0,0.03405 -0.10859,0.278966 -0.24134,0.544311 -0.79231,1.583914 -2.59895,2.389331 -4.46011,1.988356 z m 2.82368,-5.258788 c -0.39036,-1.993055 -3.39391,-1.967581 -3.96786,0.03365 l -0.0971,0.338772 h 2.06898 2.06898 z m 4.79752,5.091834 c -0.40845,-0.191105 -0.74251,-0.615489 -0.74251,-0.943272 0,-0.243193 0.74548,-0.114488 0.86091,0.148624 0.14838,0.338216 1.04511,0.377085 1.24655,0.05402 0.16576,-0.265813 0.009,-0.363535 -0.85712,-0.53391 -1.49097,-0.293328 -1.64821,-1.646841 -0.22837,-1.965861 0.84488,-0.189819 1.58184,0.134894 1.7797,0.784153 0.10856,0.356174 -0.51903,0.374182 -0.75369,0.02161 -0.18382,-0.276188 -0.79781,-0.336741 -1.07573,-0.106086 -0.26751,0.222014 -0.0334,0.40377 0.91904,0.713404 0.5977,0.194325 0.83973,0.336038 0.96747,0.566478 0.51668,0.932107 -0.95053,1.806235 -2.11625,1.260807 z m -40.710819,-3.888621 0.03302,-3.982071 h 0.916735 0.916736 v 0.487163 c 0,0.569839 0.0109,0.576885 0.307016,0.200306 0.845895,-1.075379 2.999141,-1.256438 4.084196,-0.343422 0.792643,0.666962 0.877999,1.064391 0.898253,4.182333 0.02432,3.741931 0.112903,3.43776 -1.001373,3.43776 h -0.907632 v -2.755899 c 0,-3.469752 -0.127569,-3.776535 -1.56995,-3.775414 -1.481938,0.0013 -1.747367,0.604824 -1.750702,3.981641 l -0.0026,2.549672 h -0.978409 -0.978404 z m 10.349581,2.754152 C 78.226883,80.725732 77.448163,78.544272 76.880713,76.9884 76.306711,75.414576 76.266745,75.526802 77.401222,75.526802 h 0.969594 l 0.162371,0.544312 c 0.0893,0.299369 0.537542,1.6964 0.996068,3.104505 l 0.833689,2.560197 0.588021,-1.872646 c 0.323406,-1.029954 0.766697,-2.426141 0.985081,-3.102643 l 0.397059,-1.229996 0.945388,-0.0017 c 0.519958,-8.65e-4 0.945383,0.01294 0.945383,0.0311 0,0.08555 -1.187948,3.506657 -1.659786,4.779919 -0.291943,0.787821 -0.671373,1.819148 -0.843175,2.291843 l -0.312365,0.859436 -1.096347,0.03262 -1.096351,0.03257 -0.431808,-1.235811 z m 6.471159,-2.778163 v -4.015354 h 0.914551 c 0.983063,0 1.170631,0.150826 0.999822,0.803982 -0.08219,0.31436 -2.29e-4,0.285251 0.34198,-0.121435 0.948089,-1.126739 2.798784,-1.176096 3.841331,-0.102453 l 0.539982,0.556088 0.241002,-0.338457 c 0.85044,-1.194336 3.13668,-1.332494 4.18516,-0.252912 0.660978,0.680585 0.739138,1.15837 0.739138,4.518044 v 2.958591 h -0.97403 -0.974035 l -0.0017,-2.836153 c -0.002,-3.471952 -0.187681,-3.93193 -1.521021,-3.769204 -1.263833,0.154252 -1.450948,0.669341 -1.454161,4.003023 l -0.0026,2.6116 -0.945387,-0.03327 -0.945382,-0.0333 -0.05902,-2.864796 c -0.07142,-3.46689 -0.123542,-3.60965 -1.317743,-3.60965 -1.42236,0 -1.587466,0.376144 -1.65992,3.781535 l -0.05731,2.692911 -0.945382,0.0333 -0.945378,0.03327 z m 26.585329,1.714246 v -2.291843 h 0.40107 0.40108 v 0.819906 c 0,0.814399 0.001,0.818499 0.23066,0.611156 1.0036,-0.908244 1.94658,0.06208 1.94658,2.003016 v 1.1496 h -0.40108 -0.40107 l -0.001,-1.117272 c -10e-4,-1.203123 -0.0286,-1.294907 -0.44227,-1.512879 -0.59662,-0.314455 -0.86875,0.126158 -0.90645,1.467608 l -0.0326,1.162543 h -0.39707 -0.39706 z m 0.0461,-5.185288 0.0772,-1.403755 -2.41566,-1.534506 c -2.29747,-1.459433 -2.43083,-1.527492 -2.72589,-1.39099 -0.84497,0.390889 -4.56188,1.607694 -4.91095,1.607694 -0.67891,0 -0.72243,-0.03382 -3.789488,-2.945429 -1.718911,-1.631791 -2.70528,-2.326649 -2.952211,-2.079721 -0.02349,0.02349 0.340287,0.553767 0.808356,1.178429 0.887727,1.184723 0.997188,1.501683 0.632568,1.831658 -0.464119,0.420021 -0.91187,0.211788 -1.58076,-0.735143 -0.333894,-0.472695 -0.999806,-1.356506 -1.479806,-1.964034 l -0.872723,-1.104596 -3.997009,3.199911 -3.997007,3.19991 -1.143412,-0.03267 -1.143411,-0.03266 2.184524,-1.718879 c 1.201476,-0.945375 2.287815,-1.800059 2.414081,-1.899292 0.346921,-0.272643 -1.310544,-2.794114 -2.58256,-3.928811 -1.832407,-1.634586 -1.962993,-2.215962 -1.276003,-5.68068 l 0.509713,-2.57062 -0.29585,-0.387875 c -0.360545,-0.472704 -0.206492,-0.535269 -2.224956,0.90363 -0.916367,0.65325 -2.463362,1.727366 -3.437757,2.386921 -1.610668,1.090239 -2.020164,1.445124 -4.506921,3.905869 l -2.735288,2.706671 0.247154,0.563218 c 0.191127,0.435535 0.836981,1.154224 2.848939,3.170188 l 2.601795,2.606965 -1.030393,-0.0026 -1.030395,-0.0026 -2.093821,-2.066949 C 69.925448,69.813331 69.88565,69.76478 69.26512,68.527476 68.268702,66.54068 68.333707,67.662383 68.387076,53.376042 l 0.04743,-12.696718 0.284511,-0.33812 0.284511,-0.338123 h 21.866682 21.86668 l 0.29667,0.352567 0.29667,0.352567 v 10.609969 c 0,5.835536 -0.0184,10.588579 -0.0412,10.56232 -0.0227,-0.02625 -0.35787,-0.624241 -0.74485,-1.328841 l -0.7036,-1.281102 V 50.39117 c 0,-7.000952 -0.0303,-8.889768 -0.14325,-8.928458 -0.0788,-0.02699 -3.00518,-0.02461 -6.50309,0.0052 l -6.359856,0.05434 -3.223553,2.420236 c -3.150287,2.36522 -3.225007,2.430649 -3.287443,2.8786 -0.04472,0.320836 -0.173208,0.556057 -0.428249,0.783953 l -0.36436,0.325581 0.133731,1.679777 c 0.07356,0.923878 0.207366,2.530625 0.297345,3.570545 0.08997,1.039924 0.325087,3.90186 0.522477,6.359856 0.197379,2.457995 0.391951,4.871193 0.43237,5.362655 l 0.0735,0.893573 2.096072,0.839382 2.09607,0.839393 1.284397,1.251681 c 3.482889,3.394208 3.336259,3.270734 3.755189,3.162177 l 0.37907,-0.09824 0.008,-3.183028 0.008,-3.183028 0.97403,-0.0099 0.97403,-0.0099 0.006,2.797252 c 0.004,1.690268 0.0492,2.789071 0.11459,2.77658 0.0596,-0.01134 0.67038,-0.20947 1.35741,-0.440233 1.47963,-0.496977 1.11375,-0.601978 3.81343,1.094415 1.10046,0.691499 2.02807,1.257263 2.06137,1.257263 0.0333,0 0.0227,-1.675906 -0.0236,-3.724238 l -0.0842,-3.724235 h 0.40236 c 0.2213,0 0.56353,-0.03222 0.76047,-0.07161 l 0.3581,-0.07161 v 6.087697 6.087697 h -0.76053 -0.76036 z M 89.628232,68.151627 90.494231,67.480076 88.799983,65.134354 C 87.868148,63.844211 86.59913,62.071953 85.979938,61.196 c -0.619186,-0.875949 -1.152739,-1.593727 -1.185663,-1.595054 -1.013601,-0.04097 -0.584851,4.42558 0.52925,5.513538 0.630939,0.616137 1.309884,1.449636 1.900877,2.333585 0.50565,0.756306 0.971111,1.438612 1.034362,1.516239 0.131289,0.161144 0.05623,0.205682 1.369468,-0.812681 z m 2.41201,-1.958289 0.31059,-0.273462 -0.278957,-3.361213 c -0.153421,-1.848665 -0.460742,-5.630136 -0.682931,-8.403257 -0.50607,-6.3163 -0.500661,-6.267187 -0.685375,-6.223276 -0.08165,0.0193 -0.861315,0.783017 -1.732545,1.696888 -0.871227,0.913874 -2.551404,2.654241 -3.733715,3.867478 -1.666579,1.71017 -2.092813,2.206291 -1.896673,2.207649 0.418206,0.0031 1.363526,1.222706 6.303895,8.134277 2.139474,2.993119 1.918054,2.775465 2.395711,2.354916 z M 73.02736,62.948713 c 0.810456,-0.835975 1.775853,-1.725247 2.145329,-1.976151 0.369475,-0.250905 0.700667,-0.50295 0.735989,-0.560098 0.03532,-0.05716 -0.670519,-0.556427 -1.568534,-1.1095 -0.898011,-0.553073 -2.148413,-1.324051 -2.77867,-1.713285 -0.630257,-0.389233 -1.255306,-0.765104 -1.389003,-0.835262 l -0.243081,-0.127568 -0.08436,4.393272 c -0.04641,2.416297 -0.04693,4.563793 -0.0011,4.772212 l 0.08322,0.378938 0.813349,-0.851299 c 0.447339,-0.46821 1.476448,-1.535281 2.286902,-2.371262 z m 5.014618,-3.913199 1.345777,-0.906786 -1.383768,-1.986661 c -0.761073,-1.092666 -1.904879,-2.734375 -2.541793,-3.648244 l -1.158023,-1.661589 -0.511909,-0.03075 -0.511907,-0.03075 -1.536664,2.065935 c -0.845167,1.136265 -1.605769,2.123284 -1.690232,2.193384 -0.551578,0.457767 -0.326485,0.661194 2.969063,2.68332 1.717448,1.053815 3.198138,1.986425 3.290425,2.072476 0.253634,0.236487 0.284079,0.223272 1.729031,-0.750333 z m 1.750002,-5.64289 c -0.137525,-2.290572 -0.253711,-4.280701 -0.258204,-4.422507 -0.0045,-0.141813 -0.06928,-0.257834 -0.144007,-0.257834 -0.07472,0 -0.254753,-0.111711 -0.400065,-0.248214 l -0.264216,-0.248217 -1.232868,0.434317 c -0.678079,0.238875 -1.495551,0.516168 -1.816612,0.61621 -0.534851,0.166668 -0.595583,0.22201 -0.725162,0.660864 l -0.141419,0.478964 2.373425,3.421594 c 2.50974,3.618092 2.675796,3.842826 2.788173,3.773375 0.03905,-0.02414 -0.04152,-1.917982 -0.179042,-4.208552 z m 5.070017,-0.469081 c 2.262715,-2.347705 4.388835,-4.550437 4.724713,-4.894964 0.497783,-0.510606 0.580376,-0.648567 0.446754,-0.746272 -0.271287,-0.198372 -8.925208,0.405628 -8.998377,0.628039 -0.03106,0.09443 -0.235098,0.335898 -0.453408,0.536606 l -0.396932,0.36493 0.07513,1.353954 c 0.06872,1.238357 0.17298,2.940827 0.36193,5.908982 0.08629,1.355468 -0.582359,1.852396 4.2402,-3.151275 z M 71.428096,52.151917 c 1.320659,-1.742209 1.416946,-1.902783 1.268285,-2.115025 -0.213418,-0.304702 -0.203315,-0.701756 0.02783,-1.093052 l 0.188717,-0.319465 -1.504559,-2.276535 -1.504564,-2.27653 -0.0019,5.032495 c -0.001,2.767874 0.02035,5.010216 0.04757,4.982974 0.02725,-0.02725 0.692644,-0.897921 1.478681,-1.934862 z m 5.07574,-3.85244 c 0.811134,-0.290071 1.616593,-0.578731 1.789914,-0.641465 0.226877,-0.08212 0.315129,-0.192623 0.315129,-0.394551 0,-0.262278 0.373751,-0.752031 0.652289,-0.854737 0.114909,-0.04241 0.09985,-0.603061 -0.104503,-3.884409 l -0.03213,-0.515662 -0.449686,0.687553 c -0.247329,0.37815 -1.239981,1.886715 -2.205895,3.352359 -0.965915,1.465642 -1.756205,2.690341 -1.756205,2.721554 0,0.132059 0.398611,0.02732 1.791083,-0.470642 z m -0.245091,-3.139546 c 2.044463,-3.091479 2.406867,-3.667624 2.33077,-3.705402 -0.02087,-0.01032 -1.984562,-0.002 -4.363779,0.01847 l -4.325845,0.03725 v 0.671239 c 0,0.602494 2.366089,4.639077 3.525878,6.015196 0.422779,0.501636 0.664008,0.24306 2.832976,-3.036688 z m 9.841777,1.585003 3.767406,-0.26303 0.167852,-0.352009 c 0.167644,-0.351555 0.166192,-0.354517 -1.131794,-2.316044 -0.714811,-1.080225 -1.35387,-2.052504 -1.420129,-2.160622 -0.109721,-0.179023 -0.461565,-0.197523 -3.939245,-0.207053 l -3.818774,-0.01032 0.07288,1.26051 c 0.04012,0.693281 0.104764,1.78267 0.143745,2.420861 l 0.07087,1.160345 0.376596,0.179584 c 0.207116,0.09876 0.41237,0.29231 0.456099,0.430079 0.07356,0.231799 0.13203,0.245661 0.783289,0.185708 0.38708,-0.03565 2.399116,-0.183176 4.471188,-0.327838 z m 6.718314,-1.535195 c 0.472384,-0.350757 1.503455,-1.122089 2.291276,-1.714068 0.787821,-0.591978 1.702339,-1.271865 2.03227,-1.510854 0.329924,-0.238992 0.600589,-0.460315 0.601474,-0.491828 8.7e-4,-0.03154 -2.138919,-0.0573 -4.755125,-0.0573 -3.829587,0 -4.745703,0.02872 -4.700145,0.147379 0.314199,0.818307 2.53423,3.920636 2.805614,3.920636 0.167852,0 0.405262,0.07571 0.527604,0.168246 0.300742,0.227465 0.232955,0.253641 1.197032,-0.462213 z m 5.475475,19.344886 C 98.198351,64.444338 97.668956,63.219627 97.117897,61.833062 96.566839,60.4465 95.734952,58.38931 95.269265,57.26153 93.995848,54.177625 93.709039,54.427739 98.50643,54.438588 l 3.68273,0.0083 0.0504,-2.093819 c 0.0478,-1.985786 0.0386,-2.103459 -0.17815,-2.280609 -0.32199,-0.263143 -0.30469,-0.875907 0.0324,-1.148879 0.7276,-0.589173 1.62011,0.340082 1.03773,1.080454 -0.21,0.266974 -0.22918,0.464874 -0.22918,2.36459 v 2.073225 h 2.67101 c 3.30044,0 2.45091,-0.831982 6.37696,6.245262 0.52445,0.945383 1.12683,2.01908 1.3386,2.385993 0.45393,0.786413 0.47973,1.094786 0.11987,1.432862 l -0.26522,0.249159 h -7.33738 c -6.845123,0 -7.349096,-0.01352 -7.511883,-0.200531 z m 14.119179,-0.983141 c 0,-0.08378 -0.32575,-0.741259 -0.7239,-1.461043 -0.39816,-0.719789 -1.18142,-2.133768 -1.74058,-3.142175 -0.55916,-1.008413 -1.25079,-2.258894 -1.53696,-2.778857 l -0.5203,-0.945383 h -6.21726 -6.217257 l 0.214917,0.544313 c 0.118208,0.299368 0.65465,1.575638 1.192093,2.83615 0.537444,1.26051 1.219285,2.884851 1.515194,3.609644 0.295912,0.724796 0.561038,1.356487 0.589174,1.403753 0.100593,0.169015 13.444879,0.103122 13.444879,-0.06639 z M 99.237839,63.007631 c -0.627718,-1.508892 -0.804559,-1.958598 -0.804559,-2.046005 0,-0.05642 0.792854,-0.102598 1.76189,-0.102598 h 1.76189 l 0.46016,0.959004 c 0.77208,1.609049 0.90925,1.447428 -1.22846,1.447428 -1.803766,0 -1.84598,-0.0055 -1.950921,-0.257833 z m 3.900321,-0.859437 c -0.27758,-0.6145 -0.52459,-1.155948 -0.5489,-1.203217 -0.0243,-0.04728 0.77228,-0.08594 1.77018,-0.08594 h 1.81437 l 0.54153,1.09014 c 0.29783,0.599579 0.54152,1.141024 0.54152,1.203217 0,0.0696 -0.69487,0.113078 -1.807,0.113078 h -1.80701 z m 4.23434,-0.02655 c -0.31571,-0.629112 -0.57401,-1.170556 -0.57401,-1.203216 0,-0.153465 3.52712,-0.05596 3.65747,0.101087 0.18052,0.217519 1.15539,2.032636 1.15539,2.151235 0,0.05209 -0.82458,0.09474 -1.83242,0.09474 H 107.9465 Z M 97.745728,59.41028 c -0.220587,-0.543841 -0.418715,-1.034729 -0.440283,-1.090865 -0.02218,-0.05779 0.716671,-0.08831 1.702763,-0.07036 l 1.741972,0.0317 0.49538,1.059973 0.49537,1.059978 -1.797068,-8.67e-4 -1.797063,-8.64e-4 -0.401071,-0.988803 z m 4.077112,-0.06959 c -0.283,-0.608769 -0.43859,-1.069325 -0.36551,-1.081941 0.07,-0.01192 0.83838,-0.04192 1.70756,-0.06631 l 1.58034,-0.04433 0.50407,0.925763 c 0.80248,1.473824 0.92859,1.326837 -1.13837,1.326837 h -1.79534 z m 4.14283,-0.02863 -0.54077,-1.088621 1.37435,-0.02231 c 0.75589,-0.01221 1.53912,-0.02517 1.7405,-0.02863 0.31548,-0.0054 1.58191,1.744749 1.58191,2.186235 0,0.02308 -0.81342,0.04196 -1.80761,0.04196 h -1.80761 z m -9.349666,-2.5725 c -0.197979,-0.501014 -0.359968,-0.939325 -0.359968,-0.974031 0,-0.03469 0.734821,-0.06303 1.632933,-0.06298 l 1.632933,1.16e-4 0.40107,0.879829 c 0.220598,0.483905 0.418268,0.922167 0.439278,0.973905 0.021,0.05173 -0.732318,0.09408 -1.67404,0.09408 h -1.712234 z m 4.001146,0.08016 c -0.2042,-0.456938 -0.39787,-0.895252 -0.43039,-0.974035 -0.0457,-0.11081 0.32686,-0.143251 1.64648,-0.143251 h 1.7056 l 0.48307,0.974032 0.48307,0.97403 h -1.75827 -1.75828 z m 4.02899,-0.146239 -0.48456,-0.977019 1.72406,0.03163 1.72406,0.03163 0.50497,0.945386 0.50498,0.945381 h -1.74448 -1.74448 z M 98.610082,52.36962 c -1.13983,-1.26165 -1.352582,-3.339458 -0.504806,-4.930044 0.467113,-0.876397 0.944588,-1.335233 1.183303,-1.137121 0.251953,0.209108 0.224503,0.311454 -0.22413,0.835575 -1.129441,1.319501 -1.143192,3.465775 -0.0303,4.730089 0.451273,0.512678 0.524803,0.879881 0.189136,0.944527 -0.09976,0.0193 -0.37571,-0.180144 -0.6132,-0.443026 z m 7.160288,0.299991 c -0.11382,-0.137117 -0.0641,-0.260007 0.27025,-0.668033 1.23684,-1.509402 1.28004,-3.201207 0.1219,-4.774406 -0.41903,-0.569221 -0.49606,-0.74265 -0.3878,-0.873092 0.49035,-0.590836 1.7282,1.394697 1.80716,2.898713 0.0921,1.753232 -1.18817,4.167905 -1.81152,3.416818 z m -5.55991,-1.522199 c -0.790176,-0.844786 -0.732588,-2.76415 0.10374,-3.458249 0.47064,-0.390597 0.67594,0.141419 0.26767,0.693631 -0.39532,0.5347 -0.37109,1.745874 0.0459,2.292537 0.49785,0.652713 0.1353,1.062865 -0.41728,0.472081 z m 4.14341,0.23873 c -0.14598,-0.145996 -0.0748,-0.408071 0.19935,-0.733878 0.52553,-0.62456 0.48504,-1.749339 -0.0855,-2.374804 -0.18694,-0.204935 -0.21268,-0.306113 -0.11664,-0.458373 0.54016,-0.856329 1.47223,1.343037 1.07685,2.541027 -0.23825,0.721919 -0.82126,1.278845 -1.07408,1.026028 z"
       id="path636"
       inkscape:export-filename="nvmesh_logo.svg"
       inkscape:export-xdpi="96"
       inkscape:export-ydpi="96" /></g></svg>
