<?xml version="1.0" encoding="UTF-8" standalone="no"?>
<!-- Created with Inkscape (http://www.inkscape.org/) -->

<svg
   width="160.07294mm"
   height="160.07295mm"
   viewBox="0 0 160.07294 160.07295"
   version="1.1"
   id="svg18"
   xml:space="preserve"
   sodipodi:docname="nvmesh_logo.svg"
   xmlns:inkscape="http://www.inkscape.org/namespaces/inkscape"
   xmlns:sodipodi="http://sodipodi.sourceforge.net/DTD/sodipodi-0.dtd"
   xmlns:xlink="http://www.w3.org/1999/xlink"
   xmlns="http://www.w3.org/2000/svg"
   xmlns:svg="http://www.w3.org/2000/svg"><sodipodi:namedview
     id="namedview20"
     pagecolor="#ffffff"
     bordercolor="#000000"
     borderopacity="0.25"
     inkscape:showpageshadow="2"
     inkscape:pageopacity="0.0"
     inkscape:pagecheckerboard="0"
     inkscape:deskcolor="#d1d1d1"
     inkscape:document-units="mm"
     showgrid="false"
     inkscape:zoom="0.72367996"
     inkscape:cx="808.36838"
     inkscape:cy="560.33056"
     inkscape:window-width="1280"
     inkscape:window-height="648"
     inkscape:window-x="0"
     inkscape:window-y="0"
     inkscape:window-maximized="1"
     inkscape:current-layer="layer1" /><defs
     id="defs15"><linearGradient
       inkscape:collect="always"
       id="linearGradient9896"><stop
         style="stop-color:#ede0c8;stop-opacity:1;"
         offset="0"
         id="stop9892" /><stop
         style="stop-color:#b8a8a8;stop-opacity:1;"
         offset="1"
         id="stop9894" /></linearGradient><linearGradient
       inkscape:collect="always"
       xlink:href="#linearGradient9896"
       id="linearGradient9898"
       x1="115.95412"
       y1="64.733543"
       x2="115.16038"
       y2="224.01271"
       gradientUnits="userSpaceOnUse" /></defs><g
     inkscape:label="Layer 1"
     inkscape:groupmode="layer"
     id="layer1"
     transform="translate(-36.843696,-64.336654)"><rect
       style="fill:url(#linearGradient9898);fill-opacity:1;stroke:none;stroke-width:0.254"
       id="rect315"
       width="160.07292"
       height="160.07292"
       x="36.843697"
       y="64.336655"
       transform="translate(-1.1041666e-6)"
       inkscape:export-filename="../Junk/Downloads/nvmesh_logo_color.png"
       inkscape:export-xdpi="96"
       inkscape:export-ydpi="96" /><path
       style="fill:#000000;stroke-width:0.264583"
       d="m 149.21559,219.29186 c -0.43656,-0.27649 -11.15219,-10.80977 -23.8125,-23.4073 l -23.01874,-22.90458 2.40958,0.0588 2.40958,0.0588 20.71252,20.57824 c 11.39189,11.31803 20.73663,20.54537 20.76609,20.5052 0.0295,-0.0402 -0.10503,-4.70839 -0.29888,-10.37383 l -0.35245,-10.30081 1.08997,-2.39919 c 1.3748,-3.02617 1.23047,-2.90067 4.09633,-3.56196 3.78128,-0.87252 3.81221,-0.86537 6.16819,1.42735 1.97111,1.91817 2.66237,2.34745 2.66281,1.65364 1.1e-4,-0.1819 0.3771,-1.10463 0.83776,-2.05052 l 0.83755,-1.71979 0.0221,-6.87917 0.0222,-6.87916 1.65364,-0.0788 1.65365,-0.0788 v 7.42813 7.42814 l -0.92048,1.77876 c -0.80135,1.54855 -0.94005,2.10405 -1.07173,4.2923 -0.22076,3.6688 -0.3361,4.18645 -1.03485,4.64428 -1.19313,0.78176 -2.79379,-0.32763 -2.79379,-1.93633 0,-0.78455 -5.06407,-5.88355 -5.83975,-5.88004 -2.08825,0.009 -2.52612,0.25435 -3.28177,1.83535 l -0.72445,1.51573 0.47224,11.75061 c 0.51003,12.6907 0.49502,12.99484 -0.67113,13.59788 -0.98022,0.50689 -1.03518,0.50405 -1.99368,-0.10301 z m -9.40005,-49.59642 c -4.29375,-0.92506 -6.86589,-4.11908 -7.0839,-8.79659 -0.60817,-13.0488 17.13492,-14.24265 18.13365,-1.22014 l 0.14779,1.92695 -6.9182,-0.0749 -6.9182,-0.0749 1.8e-4,0.68599 c 0.001,3.99161 6.42828,5.79147 8.59914,2.40808 0.48844,-0.76125 4.8948,-1.39345 4.8948,-0.70228 0,0.0786 -0.25075,0.64411 -0.55722,1.25677 -1.82939,3.65713 -6.00078,5.51677 -10.29804,4.59095 z m 6.51965,-12.14211 c -0.90131,-4.6018 -7.83626,-4.54298 -9.16146,0.0777 l -0.22433,0.7822 h 4.77711 4.7771 z m 11.07709,11.75663 c -0.94309,-0.44127 -1.7144,-1.42112 -1.7144,-2.17794 0,-0.56151 1.72124,-0.26435 1.98778,0.34318 0.3426,0.78091 2.41306,0.87066 2.87817,0.12476 0.38271,-0.61374 0.0205,-0.83937 -1.97901,-1.23275 -3.44254,-0.67727 -3.80559,-3.80242 -0.5273,-4.53901 1.95075,-0.4383 3.65234,0.31143 4.10919,1.81054 0.25061,0.82238 -1.1984,0.86396 -1.74021,0.0499 -0.42443,-0.6377 -1.84209,-0.77751 -2.48378,-0.24495 -0.61765,0.51261 -0.077,0.93227 2.12199,1.64719 1.38003,0.44866 1.93888,0.77588 2.23382,1.30795 1.19297,2.15216 -2.19471,4.17045 -4.88625,2.9111 z m -93.997922,-8.97851 0.07624,-9.19427 h 2.116667 2.116667 v 1.12482 c 0,1.31571 0.02492,1.33198 0.708877,0.46249 1.953101,-2.48296 6.924765,-2.90101 9.430072,-0.79293 1.830147,1.53996 2.027227,2.45759 2.073992,9.65666 0.05613,8.63981 0.2607,7.9375 -2.31209,7.9375 H 75.52914 v -6.36314 c 0,-8.01137 -0.294553,-8.71971 -3.624882,-8.71712 -3.421673,0.003 -4.034528,1.39649 -4.042224,9.19328 l -0.0058,5.88698 h -2.259063 -2.259055 z m 23.89633,6.35911 c -1.28646,-3.68177 -3.084459,-8.71858 -4.394657,-12.31096 -1.325319,-3.63383 -1.417598,-3.37471 1.201819,-3.37471 h 2.238708 l 0.37492,1.25677 c 0.20621,0.69122 1.24114,3.91685 2.29984,7.16805 l 1.92492,5.91128 1.35769,-4.32378 c 0.74672,-2.37808 1.77024,-5.60176 2.27447,-7.16375 l 0.91678,-2.83996 2.18282,-0.004 c 1.20054,-0.002 2.18281,0.0299 2.18281,0.0718 0,0.19754 -2.74287,8.09658 -3.83231,11.03644 -0.67407,1.81901 -1.55014,4.20026 -1.94682,5.29167 l -0.72122,1.98437 -2.53138,0.0753 -2.53138,0.0752 -0.99701,-2.85338 z m 14.941372,-6.41455 v -9.27112 h 2.11162 c 2.26981,0 2.70289,0.34824 2.30851,1.85633 -0.18981,0.72583 -5.3e-4,0.65862 0.7896,-0.28043 2.18906,-2.60155 6.46216,-2.71551 8.86932,-0.23654 l 1.24677,1.28396 0.55645,-0.78147 c 1.9636,-2.75762 7.24234,-3.07662 9.66319,-0.58395 1.52614,1.57141 1.70661,2.67458 1.70661,10.43179 v 6.83114 h -2.24896 -2.24896 l -0.004,-6.54844 c -0.005,-8.01645 -0.43335,-9.0785 -3.51191,-8.70278 -2.91809,0.35614 -3.35012,1.54545 -3.35754,9.24265 l -0.006,6.02997 -2.18282,-0.0768 -2.18281,-0.0769 -0.13627,-6.61458 c -0.16491,-8.00476 -0.28524,-8.33438 -3.04256,-8.33438 -3.28411,0 -3.66533,0.86848 -3.83262,8.73125 l -0.1323,6.21771 -2.18281,0.0769 -2.1828,0.0768 z m 61.38332,3.95805 v -5.29167 h 0.92604 0.92604 v 1.89309 c 0,1.88038 0.004,1.88985 0.53259,1.41111 2.31722,-2.09706 4.4945,0.14333 4.4945,4.6248 v 2.65433 h -0.92605 -0.92604 l -0.004,-2.57969 c -0.004,-2.77791 -0.0663,-2.98983 -1.02117,-3.49311 -1.37754,-0.72605 -2.00588,0.2913 -2.09288,3.38859 l -0.0754,2.68421 h -0.91678 -0.91679 z m 0.10647,-11.9724 0.17813,-3.24115 -5.57754,-3.54305 c -5.30467,-3.36971 -5.6126,-3.52685 -6.29387,-3.21168 -1.95095,0.90253 -10.533,3.71203 -11.33898,3.71203 -1.56755,0 -1.66803,-0.0781 -8.7496,-6.80075 -3.96883,-3.76767 -6.24627,-5.37204 -6.81641,-4.8019 -0.0542,0.0542 0.78569,1.2786 1.86642,2.72089 2.04969,2.73543 2.30243,3.46726 1.46055,4.22915 -1.07161,0.96979 -2.10543,0.489 -3.64984,-1.69739 -0.77093,-1.09141 -2.30847,-3.13206 -3.41675,-4.53479 l -2.01505,-2.55042 -9.22876,7.38833 -9.22876,7.38833 -2.640042,-0.0754 -2.64004,-0.0754 5.043882,-3.96875 c 2.77413,-2.18281 5.2824,-4.15621 5.57394,-4.38533 0.80101,-0.62951 -3.02594,-6.45138 -5.96292,-9.0713 -4.230872,-3.77412 -4.532392,-5.11647 -2.946182,-13.11622 l 1.17688,-5.93535 -0.68309,-0.89557 c -0.83247,-1.09143 -0.47679,-1.23589 -5.13724,2.08641 -2.11582,1.5083 -5.6877,3.98834 -7.9375,5.5112 -3.718893,2.51727 -4.664389,3.33667 -10.406107,9.01833 l -6.315549,6.24948 0.570649,1.30042 c 0.44128,1.00562 1.932524,2.66501 6.577972,7.3197 l 6.007325,6.01927 -2.379091,-0.006 -2.379093,-0.006 -4.834462,-4.77241 c -4.763817,-4.70267 -4.855707,-4.81477 -6.28846,-7.6716 -2.300645,-4.58735 -2.150555,-1.99743 -2.027333,-34.983407 l 0.109509,-29.315675 0.656915,-0.78069 0.656913,-0.7807 h 50.488364 50.48838 l 0.68498,0.81405 0.68497,0.81405 V 95.10991 c 0,13.47377 -0.0429,24.44815 -0.0952,24.38752 -0.0524,-0.0606 -0.82629,-1.44132 -1.71979,-3.06819 l -1.62455,-2.95795 V 92.969508 c 0,-16.16462 -0.07,-20.52574 -0.33073,-20.61507 -0.1819,-0.0623 -6.9387,-0.0568 -15.0151,0.0122 l -14.68438,0.12552 -7.44292,5.58812 c -7.27375,5.4611 -7.44627,5.61217 -7.59043,6.64645 -0.10326,0.74079 -0.39993,1.28389 -0.98879,1.81008 l -0.84128,0.75174 0.30881,3.87847 c 0.16985,2.13316 0.47879,5.843005 0.68654,8.244095 0.20774,2.401097 0.7506,9.009067 1.20636,14.684377 0.45575,5.67531 0.90498,11.24718 0.9983,12.38193 l 0.16966,2.06318 4.83966,1.93807 4.83965,1.93809 2.96556,2.89003 c 8.04171,7.83694 7.70316,7.55185 8.67044,7.3012 l 0.87524,-0.2268 0.0172,-7.34935 0.0172,-7.34935 2.24896,-0.023 2.24896,-0.023 0.0146,6.45863 c 0.009,3.90269 0.11355,6.43973 0.26458,6.41089 0.13748,-0.0262 1.54784,-0.48365 3.13415,-1.01646 3.41633,-1.14748 2.57156,-1.38992 8.8049,2.52691 2.54086,1.59662 4.68264,2.90292 4.75952,2.90292 0.0769,0 0.0523,-3.86953 -0.0545,-8.59896 l -0.19432,-8.59895 h 0.92903 c 0.51097,0 1.30111,-0.0744 1.75586,-0.16537 l 0.82682,-0.16536 v 14.05599 14.05599 h -1.75562 -1.75562 z m -51.39285,-18.28544 1.99952,-1.55055 -3.91188,-5.41608 c -2.15153,-2.97884 -5.08159,-7.07084 -6.51125,-9.09334 -1.42965,-2.02249 -2.66158,-3.67978 -2.7376,-3.68285 -2.340322,-0.0946 -1.350372,10.2183 1.222,12.73031 1.45678,1.42261 3.02441,3.34709 4.38896,5.38805 1.16751,1.74625 2.24222,3.32164 2.38826,3.50087 0.30315,0.37205 0.12985,0.4749 3.16199,-1.87641 z m 5.56913,-4.52153 0.71713,-0.6314 -0.64409,-7.76076 c -0.35425,-4.26842 -1.06382,-12.99952 -1.57683,-19.40243 -1.16848,-14.583812 -1.15599,-14.470412 -1.58248,-14.369022 -0.18857,0.0448 -1.9887,1.80792 -4.0003,3.91797 -2.01159,2.11006 -5.89098,6.128425 -8.62084,8.929692 -3.847992,3.94864 -4.832132,5.09414 -4.379262,5.09728 0.9656,0.007 3.148272,2.82312 14.555172,18.78137 4.93987,6.91086 4.42863,6.40832 5.5315,5.4373 z m -43.899169,-7.49157 c 1.871276,-1.9302 4.100301,-3.98345 4.953386,-4.56277 0.853083,-0.57932 1.617785,-1.16127 1.699337,-1.29322 0.08155,-0.13196 -1.548172,-1.28474 -3.621611,-2.56174 -2.073439,-1.277 -4.960514,-3.05712 -6.415723,-3.95583 -1.455208,-0.89871 -2.898399,-1.76656 -3.207091,-1.92855 l -0.561255,-0.29454 -0.194805,10.1437 c -0.107143,5.57903 -0.108328,10.53742 -0.0026,11.01864 l 0.19217,0.87494 1.877951,-1.96558 c 1.032873,-1.08106 3.408995,-3.54484 5.280274,-5.47505 z m 11.578337,-9.03525 3.10729,-2.09369 -3.19501,-4.58704 c -1.757252,-2.52287 -4.398207,-6.313447 -5.868785,-8.423497 l -2.673781,-3.836465 -1.181957,-0.071 -1.181955,-0.071 -3.548028,4.770075 c -1.951416,2.623537 -3.707587,4.902487 -3.902604,5.064337 -1.273548,1.05695 -0.753827,1.52665 6.85532,6.19557 3.965442,2.43317 7.384237,4.58649 7.597322,4.78517 0.585616,0.54603 0.655913,0.51552 3.992188,-1.73245 z m 4.04061,-13.028967 c -0.31752,-5.288743 -0.5858,-9.883785 -0.59617,-10.211205 -0.0104,-0.32742 -0.16,-0.59531 -0.33252,-0.59531 -0.17253,0 -0.5882,-0.2579 -0.92372,-0.57311 l -0.61005,-0.57311 -2.84659,1.0028 c -1.565624,0.55154 -3.453106,1.19179 -4.194402,1.42278 -1.23493,0.38481 -1.375159,0.5126 -1.674345,1.52588 l -0.326532,1.10589 5.480049,7.900172 c 5.79478,8.35388 6.17819,8.87277 6.43766,8.71241 0.0902,-0.0557 -0.0959,-4.42846 -0.41338,-9.717197 z m 11.706252,-1.08307 c 5.22442,-5.420655 10.13346,-10.506585 10.90897,-11.302065 1.14934,-1.17895 1.34004,-1.49749 1.03152,-1.72308 -0.62638,-0.45802 -20.607572,0.93656 -20.776512,1.45009 -0.0717,0.21802 -0.54282,0.77556 -1.04688,1.23898 l -0.91648,0.84259 0.17344,3.12617 c 0.15864,2.859262 0.39941,6.790125 0.83567,13.643352 0.19923,3.12966 -1.34462,4.27703 9.790272,-7.276037 z m -31.017769,-1.78162 c 3.049289,-4.022615 3.271613,-4.393365 2.928366,-4.883415 -0.492765,-0.70353 -0.469416,-1.6203 0.06427,-2.52377 l 0.435727,-0.73762 -3.473908,-5.25633 -3.473905,-5.25632 -0.0045,11.61962 c -0.0024,6.390795 0.04693,11.568172 0.109818,11.505272 0.06289,-0.0629 1.599258,-2.073227 3.414154,-4.467437 z m 11.719467,-8.894965 c 1.872838,-0.66975 3.73258,-1.33624 4.13276,-1.48109 0.52384,-0.18962 0.72761,-0.44474 0.72761,-0.91098 0,-0.60558 0.86296,-1.73638 1.50608,-1.97352 0.26536,-0.0979 0.23053,-1.39242 -0.24131,-8.96878 l -0.0742,-1.19062 -1.03829,1.5875 c -0.57106,0.87312 -2.863016,4.35627 -5.093231,7.74032 -2.230215,3.38405 -4.054935,6.21178 -4.054935,6.28385 0,0.30492 0.920369,0.0631 4.135466,-1.08668 z m -0.565896,-7.24895 c 4.720496,-7.13797 5.557256,-8.46824 5.381556,-8.55547 -0.0482,-0.0239 -4.582194,-0.005 -10.075605,0.0425 l -9.988021,0.086 v 1.54984 c 0,1.39111 5.463106,10.71124 8.140962,13.88859 0.976159,1.15824 1.533141,0.56121 6.541108,-7.01146 z m 22.723848,3.65964 8.69863,-0.60732 0.38758,-0.81276 c 0.38708,-0.81171 0.38374,-0.81855 -2.61322,-5.34755 -1.65044,-2.49415 -3.12597,-4.73906 -3.27896,-4.9887 -0.25331,-0.41336 -1.06571,-0.45606 -9.095392,-0.47808 l -8.81723,-0.0242 0.16828,2.91041 c 0.0926,1.60073 0.24192,4.11604 0.33191,5.58957 l 0.16363,2.67914 0.86953,0.41465 c 0.47823,0.22805 0.95213,0.67492 1.05309,0.99302 0.16987,0.53521 0.30485,0.56721 1.80855,0.42876 0.89374,-0.0823 5.53936,-0.42292 10.323602,-0.75695 z m 15.51203,-3.54464 c 1.0907,-0.80987 3.47136,-2.59081 5.29037,-3.95764 1.81901,-1.36683 3.93056,-2.93663 4.69234,-3.48844 0.76177,-0.55181 1.38671,-1.06283 1.38876,-1.13559 0.002,-0.0728 -4.93859,-0.13229 -10.97919,-0.13229 -8.8422,0 -10.95744,0.0663 -10.85225,0.34029 0.72546,1.8894 5.85133,9.05242 6.47793,9.05242 0.38753,0 0.93572,0.17481 1.2182,0.38846 0.69438,0.5252 0.53787,0.58564 2.76384,-1.06721 z m 12.64242,44.665742 c -0.22158,-0.25467 -1.44389,-3.0824 -2.71624,-6.28386 -1.27235,-3.20146 -3.19311,-7.95134 -4.26834,-10.55529 -2.94021,-7.12048 -3.60243,-6.54299 7.47434,-6.51794 l 8.50311,0.0192 0.11637,-4.834457 c 0.11037,-4.585015 0.0891,-4.856715 -0.41134,-5.265735 -0.74343,-0.60757 -0.7035,-2.0224 0.0748,-2.65267 1.67996,-1.36035 3.74069,0.78522 2.39604,2.49468 -0.48488,0.61642 -0.52917,1.07336 -0.52917,5.459645 v 4.786907 h 6.16714 c 7.62045,0 5.65896,-1.92098 14.72389,14.41979 1.2109,2.18281 2.60172,4.66189 3.09072,5.50906 1.04807,1.81576 1.10762,2.52777 0.27672,3.30836 l -0.61237,0.57529 h -16.94142 c -15.80481,0 -16.96844,-0.0311 -17.3443,-0.46302 z m 32.60004,-2.26999 c 0,-0.19346 -0.75216,-1.71151 -1.67146,-3.37343 -0.91931,-1.66193 -2.72778,-4.92669 -4.01884,-7.25502 -1.29106,-2.32834 -2.88798,-5.2156 -3.54872,-6.41615 l -1.20133,-2.18281 h -14.35513 -14.35514 l 0.49623,1.25677 c 0.27293,0.69122 1.51153,3.63802 2.75244,6.54844 1.24092,2.91041 2.81523,6.66088 3.49846,8.33437 0.68323,1.67349 1.29539,3.13201 1.36035,3.24115 0.23227,0.39022 31.04314,0.23806 31.04314,-0.15332 z m -30.42151,-1.30189 c -1.44935,-3.48391 -1.85766,-4.52224 -1.85766,-4.72406 0,-0.13028 1.83063,-0.23688 4.06806,-0.23688 h 4.06805 l 1.06248,2.21426 c 1.78266,3.71516 2.09938,3.34199 -2.83643,3.34199 -4.16473,0 -4.2622,-0.0129 -4.5045,-0.59531 z m 9.00552,-1.98437 c -0.64092,-1.41883 -1.21123,-2.66899 -1.26736,-2.77813 -0.0561,-0.10914 1.78311,-0.19844 4.08719,-0.19844 h 4.18923 l 1.25034,2.51704 c 0.68768,1.38438 1.25034,2.63453 1.25034,2.77813 0,0.16068 -1.60441,0.26108 -4.17223,0.26108 h -4.17222 z m 9.77673,-0.0613 c -0.72893,-1.45257 -1.32533,-2.70272 -1.32533,-2.77813 0,-0.35432 8.14383,-0.12922 8.4448,0.23342 0.41681,0.50223 2.6677,4.69319 2.6677,4.96703 0,0.12029 -1.90391,0.2187 -4.23092,0.2187 h -4.23092 z m -22.22741,-6.26032 c -0.50932,-1.25568 -0.96678,-2.3891 -1.01658,-2.51871 -0.0512,-0.1334 1.65473,-0.20391 3.93154,-0.16249 l 4.02207,0.0732 1.14378,2.44739 1.14377,2.4474 -4.14927,-0.002 -4.14927,-0.002 -0.92604,-2.28306 z m 9.41371,-0.16064 c -0.65342,-1.4056 -1.01266,-2.46898 -0.84394,-2.49811 0.16158,-0.0279 1.93576,-0.0968 3.94263,-0.15314 l 3.64886,-0.10242 1.16385,2.13751 c 1.85288,3.40294 2.14405,3.06356 -2.62838,3.06356 h -4.14531 z m 9.56545,-0.0661 -1.2486,-2.51354 3.17326,-0.0515 c 1.7453,-0.0283 3.5537,-0.0581 4.01868,-0.0661 0.72841,-0.0127 3.6525,4.02848 3.6525,5.04783 0,0.0533 -1.87813,0.0969 -4.17362,0.0969 h -4.17362 z m -21.5876,-5.93974 c -0.45713,-1.1568 -0.83114,-2.16883 -0.83114,-2.24896 0,-0.0801 1.69664,-0.14555 3.77031,-0.14539 l 3.77031,2.7e-4 0.92604,2.03145 c 0.50933,1.1173 0.96573,2.12921 1.01424,2.24867 0.0485,0.11949 -1.69084,0.21724 -3.86521,0.21724 h -3.95341 z m 9.23832,0.18505 c -0.47149,-1.05503 -0.91867,-2.06706 -0.99375,-2.24896 -0.10561,-0.25588 0.75471,-0.33073 3.8016,-0.33073 h 3.93809 l 1.11537,2.24896 1.11537,2.24896 h -4.05972 -4.05972 z m 9.30259,-0.33763 -1.11879,-2.25586 3.9807,0.073 3.98071,0.073 1.16594,2.18282 1.16595,2.18281 h -4.02786 -4.02786 z m -13.93675,-9.937257 c -2.63177,-2.913053 -3.123,-7.710535 -1.16556,-11.383065 1.07853,-2.02353 2.18098,-3.08295 2.73215,-2.62552 0.58174,0.48281 0.51836,0.71912 -0.51749,1.92927 -2.60779,3.04662 -2.63954,8.00219 -0.07,10.921385 1.04196,1.18373 1.21174,2.03158 0.4367,2.18084 -0.23035,0.0444 -0.86748,-0.41595 -1.41583,-1.02291 z m 16.5325,0.69265 c -0.26276,-0.31661 -0.14798,-0.60033 0.624,-1.54243 2.85576,-3.485085 2.9555,-7.391325 0.28148,-11.023715 -0.96751,-1.31428 -1.14537,-1.71471 -0.89541,-2.01589 1.13218,-1.3642 3.99029,3.22024 4.17259,6.69288 0.2125,4.048072 -2.74339,9.623355 -4.18266,7.889155 z M 136.78248,94.71487 c -1.82444,-1.950542 -1.69147,-6.382192 0.23957,-7.984812 1.08667,-0.90185 1.56068,0.32651 0.61802,1.60154 -0.91277,1.23458 -0.85682,4.03108 0.1059,5.29328 1.14949,1.507062 0.3124,2.454065 -0.96349,1.089992 z m 9.56679,0.55121 c -0.33709,-0.33709 -0.17272,-0.9422 0.46026,-1.694462 1.21341,-1.44206 1.11994,-4.03908 -0.19737,-5.48323 -0.4316,-0.47318 -0.49105,-0.70679 -0.2693,-1.05834 1.24719,-1.9772 3.39925,3.10096 2.48636,5.86702 -0.5501,1.666852 -1.89622,2.952745 -2.47995,2.369012 z"
       id="path636"
       inkscape:export-filename="nvmesh_logo.svg"
       inkscape:export-xdpi="96"
       inkscape:export-ydpi="96" /></g></svg>
